<svg xmlns="http://www.w3.org/2000/svg" width="122" height="167" viewBox="0 0 122 167"><defs><mask id="g89cb" width="2" height="2" x="-1" y="-1"><path fill="#fff" d="M4 0h114v158H4z"/><path d="M7 0h108a3 3 0 0 1 3 3v152a3 3 0 0 1-3 3H7a3 3 0 0 1-3-3V3a3 3 0 0 1 3-3z"/></mask><filter id="g89ca" width="144" height="193" x="-11" y="-15" filterUnits="userSpaceOnUse"><feOffset dy="5" in="SourceGraphic" result="FeOffset1037Out"/><feGaussianBlur in="FeOffset1037Out" result="FeGaussianBlur1038Out" stdDeviation="2 2"/></filter></defs><g><g><g filter="url(#g89ca)"><path fill="none" d="M7 0h108a3 3 0 0 1 3 3v152a3 3 0 0 1-3 3H7a3 3 0 0 1-3-3V3a3 3 0 0 1 3-3z" mask="url(&quot;#g89cb&quot;)"/><path fill-opacity=".75" d="M7 0h108a3 3 0 0 1 3 3v152a3 3 0 0 1-3 3H7a3 3 0 0 1-3-3V3a3 3 0 0 1 3-3z"/></g><path fill="#626262" d="M7 0h108a3 3 0 0 1 3 3v152a3 3 0 0 1-3 3H7a3 3 0 0 1-3-3V3a3 3 0 0 1 3-3z"/></g></g></svg>